<svg width="56" height="56" viewBox="0 0 56 56" fill="none" xmlns="http://www.w3.org/2000/svg">
<path d="M49.1072 29.8572L33.3572 45.6072C32.8641 46.1003 32.1952 46.3774 31.4978 46.3774C30.8004 46.3774 30.1316 46.1003 29.6384 45.6072C29.1453 45.1141 28.8683 44.4452 28.8683 43.7478C28.8683 43.0504 29.1453 42.3816 29.6384 41.8885L40.9062 30.625H8.75C8.05381 30.625 7.38613 30.3485 6.89384 29.8562C6.40156 29.3639 6.125 28.6962 6.125 28C6.125 27.3038 6.40156 26.6361 6.89384 26.1439C7.38613 25.6516 8.05381 25.375 8.75 25.375H40.9062L29.6428 14.105C29.1497 13.6119 28.8726 12.943 28.8726 12.2456C28.8726 11.5482 29.1497 10.8794 29.6428 10.3863C30.1359 9.89313 30.8048 9.61609 31.5022 9.61609C32.1996 9.61609 32.8684 9.89313 33.3616 10.3863L49.1116 26.1363C49.3563 26.3805 49.5504 26.6706 49.6827 26.99C49.8151 27.3095 49.883 27.6519 49.8825 27.9976C49.8821 28.3434 49.8134 28.6857 49.6804 29.0048C49.5473 29.3239 49.3525 29.6136 49.1072 29.8572Z" fill="#68EAFF"/>
</svg>
