<svg width="50" height="49" viewBox="0 0 50 49" fill="none" xmlns="http://www.w3.org/2000/svg">
<path d="M40.1458 10.882C37.375 9.61618 34.375 8.69743 31.25 8.1666C31.2226 8.16574 31.1953 8.17078 31.1701 8.18136C31.1449 8.19194 31.1224 8.20781 31.1042 8.22785C30.7292 8.9016 30.2917 9.77951 30 10.4533C26.6854 9.96326 23.3146 9.96326 20 10.4533C19.7083 9.7591 19.2708 8.9016 18.875 8.22785C18.8542 8.18701 18.7917 8.1666 18.7292 8.1666C15.6042 8.69743 12.625 9.61618 9.83332 10.882C9.81249 10.882 9.79166 10.9024 9.77082 10.9228C4.10416 19.2324 2.54166 27.3174 3.31249 35.3208C3.31249 35.3616 3.33332 35.4024 3.37499 35.4228C7.12499 38.1178 10.7292 39.7512 14.2917 40.8333C14.3542 40.8537 14.4167 40.8333 14.4375 40.7924C15.2708 39.6695 16.0208 38.4853 16.6667 37.2399C16.7083 37.1583 16.6667 37.0766 16.5833 37.0562C15.3958 36.607 14.2708 36.0762 13.1667 35.4637C13.0833 35.4228 13.0833 35.3003 13.1458 35.2391C13.375 35.0758 13.6042 34.892 13.8333 34.7287C13.875 34.6878 13.9375 34.6878 13.9792 34.7083C21.1458 37.9137 28.875 37.9137 35.9583 34.7083C36 34.6878 36.0625 34.6878 36.1042 34.7287C36.3333 34.9124 36.5625 35.0758 36.7917 35.2595C36.875 35.3208 36.875 35.4433 36.7708 35.4841C35.6875 36.117 34.5417 36.6274 33.3542 37.0766C33.2708 37.097 33.25 37.1991 33.2708 37.2603C33.9375 38.5058 34.6875 39.6899 35.5 40.8128C35.5625 40.8333 35.625 40.8537 35.6875 40.8333C39.2708 39.7512 42.875 38.1178 46.625 35.4228C46.6667 35.4024 46.6875 35.3616 46.6875 35.3208C47.6042 26.072 45.1667 18.0483 40.2292 10.9228C40.2083 10.9024 40.1875 10.882 40.1458 10.882ZM17.75 30.4412C15.6042 30.4412 13.8125 28.5016 13.8125 26.1128C13.8125 23.7241 15.5625 21.7845 17.75 21.7845C19.9583 21.7845 21.7083 23.7445 21.6875 26.1128C21.6875 28.5016 19.9375 30.4412 17.75 30.4412ZM32.2708 30.4412C30.125 30.4412 28.3333 28.5016 28.3333 26.1128C28.3333 23.7241 30.0833 21.7845 32.2708 21.7845C34.4792 21.7845 36.2292 23.7445 36.2083 26.1128C36.2083 28.5016 34.4792 30.4412 32.2708 30.4412Z" fill="#68EAFF"/>
</svg>
