<svg width="3680" height="907" viewBox="0 0 3680 907" fill="none" xmlns="http://www.w3.org/2000/svg">
<mask id="mask0_141_345" style="mask-type:alpha" maskUnits="userSpaceOnUse" x="0" y="0" width="3680" height="907">
<mask id="mask1_141_345" style="mask-type:alpha" maskUnits="userSpaceOnUse" x="0" y="0" width="3680" height="907">
<rect width="3679.17" height="907" transform="matrix(1 0 0 -1 0 907)" fill="#D9D9D9"/>
</mask>
<g mask="url(#mask1_141_345)">
<mask id="mask2_141_345" style="mask-type:alpha" maskUnits="userSpaceOnUse" x="0" y="0" width="3680" height="907">
<rect width="3679.17" height="907" fill="url(#paint0_linear_141_345)"/>
</mask>
<g mask="url(#mask2_141_345)">
<mask id="mask3_141_345" style="mask-type:alpha" maskUnits="userSpaceOnUse" x="0" y="0" width="3680" height="907">
<rect width="3679.17" height="907" fill="url(#paint1_linear_141_345)"/>
</mask>
<g mask="url(#mask3_141_345)">
<line x1="0.0258788" y1="778.169" x2="3679.2" y2="778.169" stroke="#68EAFF" stroke-width="2.72084"/>
<line y1="-1.36042" x2="909.607" y2="-1.36042" transform="matrix(-0.075658 0.997134 -0.989449 -0.144883 1826.38 0)" stroke="#68EAFF" stroke-width="2.72084"/>
<line y1="-1.36042" x2="934.701" y2="-1.36042" transform="matrix(0.241647 0.970364 -0.901317 0.433159 1875.79 0)" stroke="#68EAFF" stroke-width="2.72084"/>
<line y1="-1.36042" x2="1045.77" y2="-1.36042" transform="matrix(0.497773 0.867307 -0.670135 0.742239 1925.2 0)" stroke="#68EAFF" stroke-width="2.72084"/>
<line y1="-1.36042" x2="1214.83" y2="-1.36042" transform="matrix(0.665265 0.746607 -0.50271 0.864455 1978.13 0)" stroke="#68EAFF" stroke-width="2.72084"/>
<line y1="-1.36042" x2="1425.2" y2="-1.36042" transform="matrix(0.771358 0.636401 -0.393099 0.919496 2025.78 0)" stroke="#68EAFF" stroke-width="2.72084"/>
<line y1="-1.36042" x2="1651.3" y2="-1.36042" transform="matrix(0.835649 0.549263 -0.322404 0.946602 2080.48 0)" stroke="#68EAFF" stroke-width="2.72084"/>
<line y1="-1.36042" x2="1752.67" y2="-1.36042" transform="matrix(0.878938 0.476936 -0.27068 0.962669 2138.71 0)" stroke="#68EAFF" stroke-width="2.72084"/>
<line y1="-1.36042" x2="1640.9" y2="-1.36042" transform="matrix(0.907622 0.419788 -0.233064 0.972461 2189.88 0)" stroke="#68EAFF" stroke-width="2.72084"/>
<line y1="-1.36042" x2="1550.14" y2="-1.36042" transform="matrix(0.927749 0.373204 -0.20406 0.978958 2241.06 0)" stroke="#68EAFF" stroke-width="2.72084"/>
<line y1="-1.36042" x2="1473.54" y2="-1.36042" transform="matrix(0.941251 0.337707 -0.182782 0.983153 2292.23 0)" stroke="#68EAFF" stroke-width="2.72084"/>
<line y1="-1.36042" x2="1403.74" y2="-1.36042" transform="matrix(0.951597 0.307349 -0.165066 0.986283 2343.4 0)" stroke="#68EAFF" stroke-width="2.72084"/>
<line y1="-1.36042" x2="1336.56" y2="-1.36042" transform="matrix(0.959821 0.280614 -0.149785 0.988719 2396.34 0)" stroke="#68EAFF" stroke-width="2.72084"/>
<line y1="-1.36042" x2="1273.03" y2="-1.36042" transform="matrix(0.966137 0.258031 -0.137085 0.990559 2449.28 0)" stroke="#68EAFF" stroke-width="2.72084"/>
<line y1="-1.36042" x2="1213.19" y2="-1.36042" transform="matrix(0.970159 0.242471 -0.128435 0.991718 2502.22 0)" stroke="#68EAFF" stroke-width="2.72084"/>
<line y1="-1.36042" x2="1153.69" y2="-1.36042" transform="matrix(0.974306 0.225228 -0.118935 0.992902 2555.15 0)" stroke="#68EAFF" stroke-width="2.72084"/>
<line y1="-1.36042" x2="1096.13" y2="-1.36042" transform="matrix(0.977171 0.212455 -0.111953 0.993713 2608.09 0)" stroke="#68EAFF" stroke-width="2.72084"/>
<line y1="-1.36042" x2="1038.78" y2="-1.36042" transform="matrix(0.980156 0.198226 -0.104225 0.994554 2661.03 0)" stroke="#68EAFF" stroke-width="2.72084"/>
<line y1="-1.36042" x2="993.827" y2="-1.36042" transform="matrix(0.983656 0.18006 -0.0944293 0.995532 2701.62 0)" stroke="#68EAFF" stroke-width="2.72084"/>
<line y1="-1.36042" x2="950.888" y2="-1.36042" transform="matrix(0.985364 0.170461 -0.089283 0.996006 2742.2 0)" stroke="#68EAFF" stroke-width="2.72084"/>
<line y1="-1.36042" x2="906.263" y2="-1.36042" transform="matrix(0.987184 0.159589 -0.0834765 0.99651 2782.79 0)" stroke="#68EAFF" stroke-width="2.72084"/>
<line y1="-1.36042" x2="865.613" y2="-1.36042" transform="matrix(0.988718 0.149787 -0.0782608 0.996933 2823.37 0)" stroke="#68EAFF" stroke-width="2.72084"/>
<line y1="-1.36042" x2="823.689" y2="-1.36042" transform="matrix(0.989744 0.142851 -0.0745807 0.997215 2863.96 0)" stroke="#68EAFF" stroke-width="2.72084"/>
<line y1="-1.36042" x2="781.794" y2="-1.36042" transform="matrix(0.990869 0.134828 -0.0703341 0.997523 2904.54 0)" stroke="#68EAFF" stroke-width="2.72084"/>
<line y1="-1.36042" x2="739.943" y2="-1.36042" transform="matrix(0.992082 0.12559 -0.0654566 0.997855 2945.13 0)" stroke="#68EAFF" stroke-width="2.72084"/>
<line y1="-1.36042" x2="698.487" y2="-1.36042" transform="matrix(0.992819 0.119626 -0.0623141 0.998057 2985.71 0)" stroke="#68EAFF" stroke-width="2.72084"/>
<line y1="-1.36042" x2="657.028" y2="-1.36042" transform="matrix(0.993716 0.111929 -0.0582666 0.998301 3026.3 0)" stroke="#68EAFF" stroke-width="2.72084"/>
<line y1="-1.36042" x2="615.621" y2="-1.36042" transform="matrix(0.994626 0.10353 -0.0538582 0.998549 3066.89 0)" stroke="#68EAFF" stroke-width="2.72084"/>
<line y1="-1.36042" x2="574.501" y2="-1.36042" transform="matrix(0.995173 0.0981392 -0.0510335 0.998697 3107.47 0)" stroke="#68EAFF" stroke-width="2.72084"/>
<line y1="-1.36042" x2="533.393" y2="-1.36042" transform="matrix(0.995795 0.0916124 -0.0476177 0.998866 3148.06 0)" stroke="#68EAFF" stroke-width="2.72084"/>
<line y1="-1.36042" x2="492.329" y2="-1.36042" transform="matrix(0.996385 0.0849489 -0.0441351 0.999026 3188.64 0)" stroke="#68EAFF" stroke-width="2.72084"/>
<line y1="-1.36042" x2="451.471" y2="-1.36042" transform="matrix(0.996678 0.0814455 -0.0423059 0.999105 3229.23 0)" stroke="#68EAFF" stroke-width="2.72084"/>
<line y1="-1.36042" x2="410.624" y2="-1.36042" transform="matrix(0.996984 0.0776077 -0.0403033 0.999187 3269.81 0)" stroke="#68EAFF" stroke-width="2.72084"/>
<line y1="-1.36042" x2="369.784" y2="-1.36042" transform="matrix(0.997338 0.0729206 -0.0378594 0.999283 3310.4 0)" stroke="#68EAFF" stroke-width="2.72084"/>
<line y1="-1.36042" x2="329.128" y2="-1.36042" transform="matrix(0.997222 0.0744801 -0.0386724 0.999252 3350.99 0)" stroke="#68EAFF" stroke-width="2.72084"/>
<line y1="-1.36042" x2="288.296" y2="-1.36042" transform="matrix(0.997684 0.0680231 -0.0353078 0.999376 3391.57 0)" stroke="#68EAFF" stroke-width="2.72084"/>
<line y1="-1.36042" x2="247.48" y2="-1.36042" transform="matrix(0.998232 0.0594314 -0.0308358 0.999524 3432.16 0)" stroke="#68EAFF" stroke-width="2.72084"/>
<line y1="-1.36042" x2="206.69" y2="-1.36042" transform="matrix(0.998874 0.0474402 -0.0246026 0.999697 3472.74 0)" stroke="#68EAFF" stroke-width="2.72084"/>
<line y1="-1.36042" x2="973.883" y2="-1.36042" transform="matrix(-0.364194 0.931323 -0.798208 -0.602382 1773.44 0)" stroke="#68EAFF" stroke-width="2.72084"/>
<line y1="-1.36042" x2="1111.4" y2="-1.36042" transform="matrix(-0.577929 0.816087 -0.590511 -0.807029 1720.5 0)" stroke="#68EAFF" stroke-width="2.72084"/>
<line y1="-1.36042" x2="1304.08" y2="-1.36042" transform="matrix(-0.718515 0.695512 -0.448348 -0.893859 1667.56 0)" stroke="#68EAFF" stroke-width="2.72084"/>
<line y1="-1.36042" x2="1519.68" y2="-1.36042" transform="matrix(-0.802363 0.596837 -0.359653 -0.933086 1614.63 0)" stroke="#68EAFF" stroke-width="2.72084"/>
<line y1="-1.36042" x2="1760.37" y2="-1.36042" transform="matrix(-0.85705 0.515233 -0.297415 -0.954748 1561.69 0)" stroke="#68EAFF" stroke-width="2.72084"/>
<line y1="-1.36042" x2="1690.4" y2="-1.36042" transform="matrix(-0.892524 0.450999 -0.253299 -0.967388 1508.75 0)" stroke="#68EAFF" stroke-width="2.72084"/>
<line y1="-1.36042" x2="1588.21" y2="-1.36042" transform="matrix(-0.916621 0.399758 -0.220429 -0.975403 1455.81 0)" stroke="#68EAFF" stroke-width="2.72084"/>
<line y1="-1.36042" x2="1500.32" y2="-1.36042" transform="matrix(-0.935036 0.354554 -0.192799 -0.981238 1402.88 0)" stroke="#68EAFF" stroke-width="2.72084"/>
<line y1="-1.36042" x2="1424.05" y2="-1.36042" transform="matrix(-0.947937 0.318457 -0.171501 -0.985184 1349.94 0)" stroke="#68EAFF" stroke-width="2.72084"/>
<line y1="-1.36042" x2="1357.13" y2="-1.36042" transform="matrix(-0.955675 0.294423 -0.157643 -0.987496 1297 0)" stroke="#68EAFF" stroke-width="2.72084"/>
<line y1="-1.36042" x2="1292.48" y2="-1.36042" transform="matrix(-0.962518 0.271217 -0.144479 -0.989508 1244.06 0)" stroke="#68EAFF" stroke-width="2.72084"/>
<line y1="-1.36042" x2="1235.62" y2="-1.36042" transform="matrix(-0.968253 0.249972 -0.132595 -0.99117 1196.42 0)" stroke="#68EAFF" stroke-width="2.72084"/>
<line y1="-1.36042" x2="1175.98" y2="-1.36042" transform="matrix(-0.973845 0.227213 -0.120024 -0.992771 1148.77 0)" stroke="#68EAFF" stroke-width="2.72084"/>
<line y1="-1.36042" x2="1127.53" y2="-1.36042" transform="matrix(-0.976562 0.215235 -0.113468 -0.993542 1101.13 0)" stroke="#68EAFF" stroke-width="2.72084"/>
<line y1="-1.36042" x2="1075.32" y2="-1.36042" transform="matrix(-0.979671 0.200609 -0.105515 -0.994418 1053.49 0)" stroke="#68EAFF" stroke-width="2.72084"/>
<line y1="-1.36042" x2="1024.29" y2="-1.36042" transform="matrix(-0.981965 0.189064 -0.0992751 -0.99506 1005.84 0)" stroke="#68EAFF" stroke-width="2.72084"/>
<line y1="-1.36042" x2="973.417" y2="-1.36042" transform="matrix(-0.98434 0.176281 -0.0924006 -0.995722 958.199 0)" stroke="#68EAFF" stroke-width="2.72084"/>
<line y1="-1.36042" x2="923.51" y2="-1.36042" transform="matrix(-0.985973 0.166908 -0.0873824 -0.996175 910.555 0)" stroke="#68EAFF" stroke-width="2.72084"/>
<line y1="-1.36042" x2="873.758" y2="-1.36042" transform="matrix(-0.987531 0.157427 -0.0823247 -0.996606 862.911 0)" stroke="#68EAFF" stroke-width="2.72084"/>
<line y1="-1.36042" x2="824.385" y2="-1.36042" transform="matrix(-0.988933 0.14836 -0.0775032 -0.996992 815.267 0)" stroke="#68EAFF" stroke-width="2.72084"/>
<line y1="-1.36042" x2="775.5" y2="-1.36042" transform="matrix(-0.989785 0.142569 -0.0744312 -0.997226 767.623 0)" stroke="#68EAFF" stroke-width="2.72084"/>
<line x1="719.979" y1="1.36042" x2="0.0256957" y2="1.36035" stroke="#68EAFF" stroke-width="2.72084"/>
<line y1="-1.36042" x2="678.076" y2="-1.36042" transform="matrix(-0.991495 0.130146 -0.06786 -0.997695 672.335 0)" stroke="#68EAFF" stroke-width="2.72084"/>
<line y1="-1.36042" x2="704.222" y2="-1.36042" transform="matrix(-0.989763 0.142718 -0.0745103 -0.99722 697.04 0)" stroke="#68EAFF" stroke-width="2.72084"/>
<line y1="-1.36042" x2="629.882" y2="-1.36042" transform="matrix(-0.991719 0.128428 -0.0669536 -0.997756 624.691 0)" stroke="#68EAFF" stroke-width="2.72084"/>
<line y1="-1.36042" x2="582.004" y2="-1.36042" transform="matrix(-0.991439 0.130569 -0.0680838 -0.99768 577.047 0)" stroke="#68EAFF" stroke-width="2.72084"/>
<line y1="-1.36042" x2="535.559" y2="-1.36042" transform="matrix(-0.991753 0.128161 -0.0668126 -0.997766 531.168 0)" stroke="#68EAFF" stroke-width="2.72084"/>
<line y1="-1.36042" x2="489.117" y2="-1.36042" transform="matrix(-0.99212 0.125295 -0.0653007 -0.997866 485.289 0)" stroke="#68EAFF" stroke-width="2.72084"/>
<line y1="-1.36042" x2="442.681" y2="-1.36042" transform="matrix(-0.992552 0.121825 -0.0634725 -0.997984 439.409 0)" stroke="#68EAFF" stroke-width="2.72084"/>
<line y1="-1.36042" x2="396.251" y2="-1.36042" transform="matrix(-0.993068 0.117541 -0.061217 -0.998124 393.53 0)" stroke="#68EAFF" stroke-width="2.72084"/>
<line y1="-1.36042" x2="349.83" y2="-1.36042" transform="matrix(-0.993695 0.112116 -0.0583648 -0.998295 347.65 0)" stroke="#68EAFF" stroke-width="2.72084"/>
<line y1="-1.36042" x2="303.423" y2="-1.36042" transform="matrix(-0.994469 0.105027 -0.0546432 -0.998506 301.771 0)" stroke="#68EAFF" stroke-width="2.72084"/>
<line y1="-1.36042" x2="257.037" y2="-1.36042" transform="matrix(-0.995442 0.0953695 -0.0495834 -0.99877 255.892 0)" stroke="#68EAFF" stroke-width="2.72084"/>
<line y1="-1.36042" x2="210.9" y2="-1.36042" transform="matrix(-0.995667 0.0929862 -0.0483363 -0.998831 210.012 0)" stroke="#68EAFF" stroke-width="2.72084"/>
<line y1="-1.36042" x2="164.564" y2="-1.36042" transform="matrix(-0.997222 0.0744801 -0.0386724 -0.999252 164.133 0)" stroke="#68EAFF" stroke-width="2.72084"/>
<line y1="-1.36042" x2="118.456" y2="-1.36042" transform="matrix(-0.998071 0.0620825 -0.0322151 -0.999481 118.253 0)" stroke="#68EAFF" stroke-width="2.72084"/>
<line y1="-1.36042" x2="72.3902" y2="-1.36042" transform="matrix(-0.99942 0.0340606 -0.0174526 -0.999848 72.374 0)" stroke="#68EAFF" stroke-width="2.72084"/>
<line x1="0.0258788" y1="648.248" x2="3679.2" y2="648.247" stroke="#68EAFF" stroke-width="2.72084"/>
<line x1="0.0258788" y1="542.839" x2="3679.2" y2="542.839" stroke="#68EAFF" stroke-width="2.72084"/>
<line x1="0.0258788" y1="469.299" x2="3679.2" y2="469.298" stroke="#68EAFF" stroke-width="2.72084"/>
<line x1="0.0258788" y1="405.564" x2="3679.2" y2="405.564" stroke="#68EAFF" stroke-width="2.72084"/>
<line x1="0.0258788" y1="356.537" x2="3679.2" y2="356.537" stroke="#68EAFF" stroke-width="2.72084"/>
<line x1="0.0258788" y1="314.864" x2="3679.2" y2="314.864" stroke="#68EAFF" stroke-width="2.72084"/>
<line x1="0.0258788" y1="278.094" x2="3679.2" y2="278.093" stroke="#68EAFF" stroke-width="2.72084"/>
<line x1="0.0258788" y1="248.677" x2="3679.2" y2="248.677" stroke="#68EAFF" stroke-width="2.72084"/>
<line x1="0.0258788" y1="224.164" x2="3679.2" y2="224.163" stroke="#68EAFF" stroke-width="2.72084"/>
<line x1="0.0258788" y1="199.651" x2="3679.2" y2="199.65" stroke="#68EAFF" stroke-width="2.72084"/>
<line x1="0.0258788" y1="177.588" x2="3679.2" y2="177.587" stroke="#68EAFF" stroke-width="2.72084"/>
<line x1="0.0258788" y1="160.429" x2="3679.2" y2="160.428" stroke="#68EAFF" stroke-width="2.72084"/>
<line x1="0.0258788" y1="143.27" x2="3679.2" y2="143.269" stroke="#68EAFF" stroke-width="2.72084"/>
<line x1="0.0258788" y1="128.561" x2="3679.2" y2="128.561" stroke="#68EAFF" stroke-width="2.72084"/>
<line x1="0.0258788" y1="116.305" x2="3679.2" y2="116.304" stroke="#68EAFF" stroke-width="2.72084"/>
<line x1="0.0258788" y1="104.048" x2="3679.2" y2="104.048" stroke="#68EAFF" stroke-width="2.72084"/>
<line x1="0.0258788" y1="91.7907" x2="3679.2" y2="91.7903" stroke="#68EAFF" stroke-width="2.72084"/>
<line x1="0.0258788" y1="81.9855" x2="3679.2" y2="81.985" stroke="#68EAFF" stroke-width="2.72084"/>
<line x1="0.0258788" y1="72.1803" x2="3679.2" y2="72.1798" stroke="#68EAFF" stroke-width="2.72084"/>
<line x1="0.0258788" y1="62.3751" x2="3679.2" y2="62.3747" stroke="#68EAFF" stroke-width="2.72084"/>
<line x1="0.0258788" y1="55.0203" x2="3679.2" y2="55.0199" stroke="#68EAFF" stroke-width="2.72084"/>
<line x1="0.0258788" y1="47.6664" x2="3679.2" y2="47.666" stroke="#68EAFF" stroke-width="2.72084"/>
<line x1="0.0258788" y1="40.3126" x2="3679.2" y2="40.3121" stroke="#68EAFF" stroke-width="2.72084"/>
<line x1="0.0258789" y1="35.888" x2="3679.2" y2="35.8876" stroke="#68EAFF" stroke-width="1.76459"/>
<line x1="0.0258789" y1="30.9854" x2="3679.2" y2="30.985" stroke="#68EAFF" stroke-width="1.76459"/>
<line x1="0.0258789" y1="26.0829" x2="3679.2" y2="26.0824" stroke="#68EAFF" stroke-width="1.76459"/>
<line x1="0.0258789" y1="21.1803" x2="3679.2" y2="21.1798" stroke="#68EAFF" stroke-width="1.76459"/>
<line x1="0.0258789" y1="18.7281" x2="3679.2" y2="18.7276" stroke="#68EAFF" stroke-width="1.76459"/>
<line x1="0.0258789" y1="13.8255" x2="3679.2" y2="13.8251" stroke="#68EAFF" stroke-width="1.76459"/>
<line x1="0.0258789" y1="8.92288" x2="3679.2" y2="8.92243" stroke="#68EAFF" stroke-width="1.76459"/>
<line x1="0.0258789" y1="4.02029" x2="3679.2" y2="4.01985" stroke="#68EAFF" stroke-width="1.76459"/>
</g>
</g>
</g>
</mask>
<g mask="url(#mask0_141_345)">
<rect width="3679" height="907" transform="matrix(1 0 0 -1 0 907)" fill="url(#paint2_linear_141_345)"/>
</g>
<line x1="46" y1="2" x2="3661" y2="2" stroke="#68EAFF" stroke-opacity="0.7" stroke-width="4"/>
<defs>
<linearGradient id="paint0_linear_141_345" x1="-2.9168e-05" y1="403.248" x2="3679.34" y2="429.289" gradientUnits="userSpaceOnUse">
<stop stop-color="#D9D9D9" stop-opacity="0"/>
<stop offset="0.130208" stop-color="#D9D9D9"/>
<stop offset="0.875" stop-color="#D9D9D9"/>
<stop offset="1" stop-color="#D9D9D9" stop-opacity="0"/>
</linearGradient>
<linearGradient id="paint1_linear_141_345" x1="1839.59" y1="0" x2="1839.59" y2="907" gradientUnits="userSpaceOnUse">
<stop offset="0.5" stop-color="#D9D9D9"/>
<stop offset="1" stop-color="#D9D9D9" stop-opacity="0"/>
</linearGradient>
<linearGradient id="paint2_linear_141_345" x1="3679" y1="453" x2="2.67562e-05" y2="453" gradientUnits="userSpaceOnUse">
<stop offset="0.113345" stop-color="#68EAFF"/>
<stop offset="0.488177" stop-color="#EE00FF"/>
<stop offset="0.894573" stop-color="#68EAFF"/>
</linearGradient>
</defs>
</svg>
