<svg width="2085" height="514" viewBox="0 0 2085 514" fill="none" xmlns="http://www.w3.org/2000/svg">
<mask id="mask0_97_4814" style="mask-type:alpha" maskUnits="userSpaceOnUse" x="0" y="0" width="2085" height="514">
<rect width="2085" height="514" transform="matrix(1 0 0 -1 0 514)" fill="#D9D9D9"/>
</mask>
<g mask="url(#mask0_97_4814)">
<path d="M1759 6.10352e-05C1759 49.4388 1740.47 98.3935 1704.46 144.069C1668.45 189.744 1615.68 231.246 1549.14 266.205C1482.61 301.163 1403.62 328.894 1316.69 347.813C1229.76 366.733 1136.59 376.47 1042.5 376.47C948.408 376.47 855.237 366.733 768.307 347.813C681.377 328.894 602.391 301.163 535.858 266.205C469.325 231.246 416.548 189.744 380.54 144.069C344.533 98.3935 326 49.4388 326 2.81231e-05L1042.5 6.10352e-05H1759Z" fill="url(#paint0_radial_97_4814)"/>
<mask id="mask1_97_4814" style="mask-type:alpha" maskUnits="userSpaceOnUse" x="0" y="0" width="2085" height="514">
<rect width="2085" height="514" fill="url(#paint1_linear_97_4814)"/>
</mask>
<g mask="url(#mask1_97_4814)">
<mask id="mask2_97_4814" style="mask-type:alpha" maskUnits="userSpaceOnUse" x="0" y="0" width="2085" height="514">
<rect width="2085" height="514" fill="url(#paint2_linear_97_4814)"/>
</mask>
<g mask="url(#mask2_97_4814)">
<line x1="0.0146484" y1="440.991" x2="2085.01" y2="440.991" stroke="#68EAFF" stroke-width="1.54191"/>
<line y1="-0.770953" x2="515.477" y2="-0.770953" transform="matrix(-0.075658 0.997134 -0.989449 -0.144883 1035.01 0)" stroke="#68EAFF" stroke-width="1.54191"/>
<line y1="-0.770953" x2="529.698" y2="-0.770953" transform="matrix(0.241647 0.970364 -0.901317 0.433159 1063.01 0)" stroke="#68EAFF" stroke-width="1.54191"/>
<line y1="-0.770953" x2="592.639" y2="-0.770953" transform="matrix(0.497773 0.867307 -0.670135 0.742239 1091.01 0)" stroke="#68EAFF" stroke-width="1.54191"/>
<line y1="-0.770953" x2="688.448" y2="-0.770953" transform="matrix(0.665265 0.746607 -0.50271 0.864455 1121.01 0)" stroke="#68EAFF" stroke-width="1.54191"/>
<line y1="-0.770953" x2="807.666" y2="-0.770953" transform="matrix(0.771358 0.636401 -0.393099 0.919496 1148.01 0)" stroke="#68EAFF" stroke-width="1.54191"/>
<line y1="-0.770953" x2="935.799" y2="-0.770953" transform="matrix(0.835649 0.549263 -0.322404 0.946602 1179.01 0)" stroke="#68EAFF" stroke-width="1.54191"/>
<line y1="-0.770953" x2="993.244" y2="-0.770953" transform="matrix(0.878938 0.476936 -0.27068 0.962669 1212.01 0)" stroke="#68EAFF" stroke-width="1.54191"/>
<line y1="-0.770953" x2="929.903" y2="-0.770953" transform="matrix(0.907622 0.419788 -0.233064 0.972461 1241.01 0)" stroke="#68EAFF" stroke-width="1.54191"/>
<line y1="-0.770953" x2="878.47" y2="-0.770953" transform="matrix(0.927749 0.373204 -0.20406 0.978958 1270.01 0)" stroke="#68EAFF" stroke-width="1.54191"/>
<line y1="-0.770953" x2="835.059" y2="-0.770953" transform="matrix(0.941251 0.337707 -0.182782 0.983153 1299.01 0)" stroke="#68EAFF" stroke-width="1.54191"/>
<line y1="-0.770953" x2="795.505" y2="-0.770953" transform="matrix(0.951597 0.307349 -0.165066 0.986283 1328.01 0)" stroke="#68EAFF" stroke-width="1.54191"/>
<line y1="-0.770953" x2="757.433" y2="-0.770953" transform="matrix(0.959821 0.280614 -0.149785 0.988719 1358.01 0)" stroke="#68EAFF" stroke-width="1.54191"/>
<line y1="-0.770953" x2="721.43" y2="-0.770953" transform="matrix(0.966137 0.258031 -0.137085 0.990559 1388.01 0)" stroke="#68EAFF" stroke-width="1.54191"/>
<line y1="-0.770953" x2="687.516" y2="-0.770953" transform="matrix(0.970159 0.242471 -0.128435 0.991718 1418.01 0)" stroke="#68EAFF" stroke-width="1.54191"/>
<line y1="-0.770953" x2="653.799" y2="-0.770953" transform="matrix(0.974306 0.225228 -0.118935 0.992902 1448.01 0)" stroke="#68EAFF" stroke-width="1.54191"/>
<line y1="-0.770953" x2="621.181" y2="-0.770953" transform="matrix(0.977171 0.212455 -0.111953 0.993713 1478.01 0)" stroke="#68EAFF" stroke-width="1.54191"/>
<line y1="-0.770953" x2="588.682" y2="-0.770953" transform="matrix(0.980156 0.198226 -0.104225 0.994554 1508.01 0)" stroke="#68EAFF" stroke-width="1.54191"/>
<line y1="-0.770953" x2="563.205" y2="-0.770953" transform="matrix(0.983656 0.18006 -0.0944293 0.995532 1531.01 0)" stroke="#68EAFF" stroke-width="1.54191"/>
<line y1="-0.770953" x2="538.871" y2="-0.770953" transform="matrix(0.985364 0.170461 -0.089283 0.996006 1554.01 0)" stroke="#68EAFF" stroke-width="1.54191"/>
<line y1="-0.770953" x2="513.582" y2="-0.770953" transform="matrix(0.987184 0.159589 -0.0834765 0.99651 1577.01 0)" stroke="#68EAFF" stroke-width="1.54191"/>
<line y1="-0.770953" x2="490.546" y2="-0.770953" transform="matrix(0.988718 0.149787 -0.0782608 0.996933 1600.01 0)" stroke="#68EAFF" stroke-width="1.54191"/>
<line y1="-0.770953" x2="466.787" y2="-0.770953" transform="matrix(0.989744 0.142851 -0.0745807 0.997215 1623.01 0)" stroke="#68EAFF" stroke-width="1.54191"/>
<line y1="-0.770953" x2="443.046" y2="-0.770953" transform="matrix(0.990869 0.134828 -0.0703341 0.997523 1646.01 0)" stroke="#68EAFF" stroke-width="1.54191"/>
<line y1="-0.770953" x2="419.328" y2="-0.770953" transform="matrix(0.992082 0.12559 -0.0654566 0.997855 1669.01 0)" stroke="#68EAFF" stroke-width="1.54191"/>
<line y1="-0.770953" x2="395.835" y2="-0.770953" transform="matrix(0.992819 0.119626 -0.0623141 0.998057 1692.01 0)" stroke="#68EAFF" stroke-width="1.54191"/>
<line y1="-0.770953" x2="372.34" y2="-0.770953" transform="matrix(0.993716 0.111929 -0.0582666 0.998301 1715.01 0)" stroke="#68EAFF" stroke-width="1.54191"/>
<line y1="-0.770953" x2="348.875" y2="-0.770953" transform="matrix(0.994626 0.10353 -0.0538582 0.998549 1738.01 0)" stroke="#68EAFF" stroke-width="1.54191"/>
<line y1="-0.770953" x2="325.572" y2="-0.770953" transform="matrix(0.995173 0.0981392 -0.0510335 0.998697 1761.01 0)" stroke="#68EAFF" stroke-width="1.54191"/>
<line y1="-0.770953" x2="302.276" y2="-0.770953" transform="matrix(0.995795 0.0916124 -0.0476177 0.998866 1784.01 0)" stroke="#68EAFF" stroke-width="1.54191"/>
<line y1="-0.770953" x2="279.005" y2="-0.770953" transform="matrix(0.996385 0.0849489 -0.0441351 0.999026 1807.01 0)" stroke="#68EAFF" stroke-width="1.54191"/>
<line y1="-0.770953" x2="255.85" y2="-0.770953" transform="matrix(0.996678 0.0814455 -0.0423059 0.999105 1830.01 0)" stroke="#68EAFF" stroke-width="1.54191"/>
<line y1="-0.770953" x2="232.702" y2="-0.770953" transform="matrix(0.996984 0.0776077 -0.0403033 0.999187 1853.01 0)" stroke="#68EAFF" stroke-width="1.54191"/>
<line y1="-0.770953" x2="209.558" y2="-0.770953" transform="matrix(0.997338 0.0729206 -0.0378594 0.999283 1876.01 0)" stroke="#68EAFF" stroke-width="1.54191"/>
<line y1="-0.770953" x2="186.518" y2="-0.770953" transform="matrix(0.997222 0.0744801 -0.0386724 0.999252 1899.01 0)" stroke="#68EAFF" stroke-width="1.54191"/>
<line y1="-0.770953" x2="163.378" y2="-0.770953" transform="matrix(0.997684 0.0680231 -0.0353078 0.999376 1922.01 0)" stroke="#68EAFF" stroke-width="1.54191"/>
<line y1="-0.770953" x2="140.248" y2="-0.770953" transform="matrix(0.998232 0.0594314 -0.0308358 0.999524 1945.01 0)" stroke="#68EAFF" stroke-width="1.54191"/>
<line y1="-0.770953" x2="117.132" y2="-0.770953" transform="matrix(0.998874 0.0474402 -0.0246026 0.999697 1968.01 0)" stroke="#68EAFF" stroke-width="1.54191"/>
<line y1="-0.770953" x2="551.903" y2="-0.770953" transform="matrix(-0.364194 0.931323 -0.798208 -0.602382 1005.01 0)" stroke="#68EAFF" stroke-width="1.54191"/>
<line y1="-0.770953" x2="629.835" y2="-0.770953" transform="matrix(-0.577929 0.816087 -0.590511 -0.807029 975.015 0)" stroke="#68EAFF" stroke-width="1.54191"/>
<line y1="-0.770953" x2="739.024" y2="-0.770953" transform="matrix(-0.718515 0.695512 -0.448348 -0.893859 945.015 0)" stroke="#68EAFF" stroke-width="1.54191"/>
<line y1="-0.770953" x2="861.207" y2="-0.770953" transform="matrix(-0.802363 0.596837 -0.359653 -0.933086 915.015 0)" stroke="#68EAFF" stroke-width="1.54191"/>
<line y1="-0.770953" x2="997.608" y2="-0.770953" transform="matrix(-0.85705 0.515233 -0.297415 -0.954748 885.015 0)" stroke="#68EAFF" stroke-width="1.54191"/>
<line y1="-0.770953" x2="957.957" y2="-0.770953" transform="matrix(-0.892524 0.450999 -0.253299 -0.967388 855.015 0)" stroke="#68EAFF" stroke-width="1.54191"/>
<line y1="-0.770953" x2="900.045" y2="-0.770953" transform="matrix(-0.916621 0.399758 -0.220429 -0.975403 825.015 0)" stroke="#68EAFF" stroke-width="1.54191"/>
<line y1="-0.770953" x2="850.235" y2="-0.770953" transform="matrix(-0.935036 0.354554 -0.192799 -0.981238 795.015 0)" stroke="#68EAFF" stroke-width="1.54191"/>
<line y1="-0.770953" x2="807.016" y2="-0.770953" transform="matrix(-0.947937 0.318457 -0.171501 -0.985184 765.015 0)" stroke="#68EAFF" stroke-width="1.54191"/>
<line y1="-0.770953" x2="769.09" y2="-0.770953" transform="matrix(-0.955675 0.294423 -0.157643 -0.987496 735.015 0)" stroke="#68EAFF" stroke-width="1.54191"/>
<line y1="-0.770953" x2="732.454" y2="-0.770953" transform="matrix(-0.962518 0.271217 -0.144479 -0.989508 705.015 0)" stroke="#68EAFF" stroke-width="1.54191"/>
<line y1="-0.770953" x2="700.23" y2="-0.770953" transform="matrix(-0.968253 0.249972 -0.132595 -0.99117 678.015 0)" stroke="#68EAFF" stroke-width="1.54191"/>
<line y1="-0.770953" x2="666.43" y2="-0.770953" transform="matrix(-0.973845 0.227213 -0.120024 -0.992771 651.015 0)" stroke="#68EAFF" stroke-width="1.54191"/>
<line y1="-0.770953" x2="638.976" y2="-0.770953" transform="matrix(-0.976562 0.215235 -0.113468 -0.993542 624.015 0)" stroke="#68EAFF" stroke-width="1.54191"/>
<line y1="-0.770953" x2="609.388" y2="-0.770953" transform="matrix(-0.979671 0.200609 -0.105515 -0.994418 597.015 0)" stroke="#68EAFF" stroke-width="1.54191"/>
<line y1="-0.770953" x2="580.469" y2="-0.770953" transform="matrix(-0.981965 0.189064 -0.0992751 -0.99506 570.015 0)" stroke="#68EAFF" stroke-width="1.54191"/>
<line y1="-0.770953" x2="551.639" y2="-0.770953" transform="matrix(-0.98434 0.176281 -0.0924006 -0.995722 543.015 0)" stroke="#68EAFF" stroke-width="1.54191"/>
<line y1="-0.770953" x2="523.356" y2="-0.770953" transform="matrix(-0.985973 0.166908 -0.0873824 -0.996175 516.015 0)" stroke="#68EAFF" stroke-width="1.54191"/>
<line y1="-0.770953" x2="495.161" y2="-0.770953" transform="matrix(-0.987531 0.157427 -0.0823247 -0.996606 489.015 0)" stroke="#68EAFF" stroke-width="1.54191"/>
<line y1="-0.770953" x2="467.182" y2="-0.770953" transform="matrix(-0.988933 0.14836 -0.0775032 -0.996992 462.015 0)" stroke="#68EAFF" stroke-width="1.54191"/>
<line y1="-0.770953" x2="439.479" y2="-0.770953" transform="matrix(-0.989785 0.142569 -0.0744312 -0.997226 435.015 0)" stroke="#68EAFF" stroke-width="1.54191"/>
<line x1="408.015" y1="0.770953" x2="0.0146484" y2="0.770918" stroke="#68EAFF" stroke-width="1.54191"/>
<line y1="-0.770953" x2="384.268" y2="-0.770953" transform="matrix(-0.991495 0.130146 -0.06786 -0.997695 381.015 0)" stroke="#68EAFF" stroke-width="1.54191"/>
<line y1="-0.770953" x2="399.085" y2="-0.770953" transform="matrix(-0.989763 0.142718 -0.0745103 -0.99722 395.015 0)" stroke="#68EAFF" stroke-width="1.54191"/>
<line y1="-0.770953" x2="356.956" y2="-0.770953" transform="matrix(-0.991719 0.128428 -0.0669536 -0.997756 354.015 0)" stroke="#68EAFF" stroke-width="1.54191"/>
<line y1="-0.770953" x2="329.824" y2="-0.770953" transform="matrix(-0.991439 0.130569 -0.0680838 -0.99768 327.015 0)" stroke="#68EAFF" stroke-width="1.54191"/>
<line y1="-0.770953" x2="303.503" y2="-0.770953" transform="matrix(-0.991753 0.128161 -0.0668126 -0.997766 301.015 0)" stroke="#68EAFF" stroke-width="1.54191"/>
<line y1="-0.770953" x2="277.184" y2="-0.770953" transform="matrix(-0.99212 0.125295 -0.0653007 -0.997866 275.015 0)" stroke="#68EAFF" stroke-width="1.54191"/>
<line y1="-0.770953" x2="250.869" y2="-0.770953" transform="matrix(-0.992552 0.121825 -0.0634725 -0.997984 249.015 0)" stroke="#68EAFF" stroke-width="1.54191"/>
<line y1="-0.770953" x2="224.557" y2="-0.770953" transform="matrix(-0.993068 0.117541 -0.061217 -0.998124 223.015 0)" stroke="#68EAFF" stroke-width="1.54191"/>
<line y1="-0.770953" x2="198.25" y2="-0.770953" transform="matrix(-0.993695 0.112116 -0.0583648 -0.998295 197.015 0)" stroke="#68EAFF" stroke-width="1.54191"/>
<line y1="-0.770953" x2="171.951" y2="-0.770953" transform="matrix(-0.994469 0.105027 -0.0546432 -0.998506 171.015 0)" stroke="#68EAFF" stroke-width="1.54191"/>
<line y1="-0.770953" x2="145.664" y2="-0.770953" transform="matrix(-0.995442 0.0953695 -0.0495834 -0.99877 145.015 0)" stroke="#68EAFF" stroke-width="1.54191"/>
<line y1="-0.770953" x2="119.518" y2="-0.770953" transform="matrix(-0.995667 0.0929862 -0.0483363 -0.998831 119.015 0)" stroke="#68EAFF" stroke-width="1.54191"/>
<line y1="-0.770953" x2="93.259" y2="-0.770953" transform="matrix(-0.997222 0.0744801 -0.0386724 -0.999252 93.0146 0)" stroke="#68EAFF" stroke-width="1.54191"/>
<line y1="-0.770953" x2="67.1295" y2="-0.770953" transform="matrix(-0.998071 0.0620825 -0.0322151 -0.999481 67.0146 0)" stroke="#68EAFF" stroke-width="1.54191"/>
<line y1="-0.770953" x2="41.0238" y2="-0.770953" transform="matrix(-0.99942 0.0340606 -0.0174526 -0.999848 41.0146 0)" stroke="#68EAFF" stroke-width="1.54191"/>
<line x1="0.0146484" y1="367.364" x2="2085.01" y2="367.364" stroke="#68EAFF" stroke-width="1.54191"/>
<line x1="0.0146484" y1="307.629" x2="2085.01" y2="307.629" stroke="#68EAFF" stroke-width="1.54191"/>
<line x1="0.0146484" y1="265.953" x2="2085.01" y2="265.953" stroke="#68EAFF" stroke-width="1.54191"/>
<line x1="0.0146484" y1="229.835" x2="2085.01" y2="229.834" stroke="#68EAFF" stroke-width="1.54191"/>
<line x1="0.0146484" y1="202.051" x2="2085.01" y2="202.051" stroke="#68EAFF" stroke-width="1.54191"/>
<line x1="0.0146484" y1="178.435" x2="2085.01" y2="178.434" stroke="#68EAFF" stroke-width="1.54191"/>
<line x1="0.0146484" y1="157.597" x2="2085.01" y2="157.596" stroke="#68EAFF" stroke-width="1.54191"/>
<line x1="0.0146484" y1="140.926" x2="2085.01" y2="140.926" stroke="#68EAFF" stroke-width="1.54191"/>
<line x1="0.0146484" y1="127.034" x2="2085.01" y2="127.034" stroke="#68EAFF" stroke-width="1.54191"/>
<line x1="0.0146484" y1="113.143" x2="2085.01" y2="113.142" stroke="#68EAFF" stroke-width="1.54191"/>
<line x1="0.0146484" y1="100.64" x2="2085.01" y2="100.639" stroke="#68EAFF" stroke-width="1.54191"/>
<line x1="0.0146484" y1="90.9156" x2="2085.01" y2="90.9153" stroke="#68EAFF" stroke-width="1.54191"/>
<line x1="0.0146484" y1="81.1914" x2="2085.01" y2="81.1912" stroke="#68EAFF" stroke-width="1.54191"/>
<line x1="0.0146484" y1="72.856" x2="2085.01" y2="72.8557" stroke="#68EAFF" stroke-width="1.54191"/>
<line x1="0.0146484" y1="65.9102" x2="2085.01" y2="65.9099" stroke="#68EAFF" stroke-width="1.54191"/>
<line x1="0.0146484" y1="58.9644" x2="2085.01" y2="58.9641" stroke="#68EAFF" stroke-width="1.54191"/>
<line x1="0.0146484" y1="52.0181" x2="2085.01" y2="52.0179" stroke="#68EAFF" stroke-width="1.54191"/>
<line x1="0.0146484" y1="46.4615" x2="2085.01" y2="46.4612" stroke="#68EAFF" stroke-width="1.54191"/>
<line x1="0.0146484" y1="40.9048" x2="2085.01" y2="40.9046" stroke="#68EAFF" stroke-width="1.54191"/>
<line x1="0.0146484" y1="35.3482" x2="2085.01" y2="35.3479" stroke="#68EAFF" stroke-width="1.54191"/>
<line x1="0.0146484" y1="31.1802" x2="2085.01" y2="31.18" stroke="#68EAFF" stroke-width="1.54191"/>
<line x1="0.0146484" y1="27.0127" x2="2085.01" y2="27.0125" stroke="#68EAFF" stroke-width="1.54191"/>
<line x1="0.0146484" y1="22.8453" x2="2085.01" y2="22.845" stroke="#68EAFF" stroke-width="1.54191"/>
<line x1="0.0146484" y1="20.3379" x2="2085.01" y2="20.3376" stroke="#68EAFF"/>
<line x1="0.0146484" y1="17.5596" x2="2085.01" y2="17.5593" stroke="#68EAFF"/>
<line x1="0.0146484" y1="14.7812" x2="2085.01" y2="14.781" stroke="#68EAFF"/>
<line x1="0.0146484" y1="12.0029" x2="2085.01" y2="12.0027" stroke="#68EAFF"/>
<line x1="0.0146484" y1="10.6133" x2="2085.01" y2="10.613" stroke="#68EAFF"/>
<line x1="0.0146484" y1="7.83496" x2="2085.01" y2="7.83471" stroke="#68EAFF"/>
<line x1="0.0146484" y1="5.05664" x2="2085.01" y2="5.05639" stroke="#68EAFF"/>
<line x1="0.0146484" y1="2.27832" x2="2085.01" y2="2.27807" stroke="#68EAFF"/>
</g>
</g>
</g>
<defs>
<radialGradient id="paint0_radial_97_4814" cx="0" cy="0" r="1" gradientUnits="userSpaceOnUse" gradientTransform="translate(1042.5 6.10352e-05) rotate(90) scale(376.47 716.5)">
<stop stop-color="#EE00FF" stop-opacity="0.5"/>
<stop offset="1" stop-color="#EE00FF" stop-opacity="0"/>
</radialGradient>
<linearGradient id="paint1_linear_97_4814" x1="-1.65296e-05" y1="228.522" x2="2085.1" y2="243.279" gradientUnits="userSpaceOnUse">
<stop stop-color="#D9D9D9" stop-opacity="0"/>
<stop offset="0.130208" stop-color="#D9D9D9"/>
<stop offset="0.875" stop-color="#D9D9D9"/>
<stop offset="1" stop-color="#D9D9D9" stop-opacity="0"/>
</linearGradient>
<linearGradient id="paint2_linear_97_4814" x1="1042.5" y1="0" x2="1042.5" y2="514" gradientUnits="userSpaceOnUse">
<stop offset="0.5" stop-color="#D9D9D9"/>
<stop offset="1" stop-color="#D9D9D9" stop-opacity="0"/>
</linearGradient>
</defs>
</svg>
