<svg width="50" height="49" viewBox="0 0 50 49" fill="none" xmlns="http://www.w3.org/2000/svg">
<path d="M46.7916 12.2498C45.1875 12.9644 43.4583 13.434 41.6666 13.6586C43.5 12.5765 44.9166 10.8615 45.5833 8.79942C43.8541 9.82025 41.9375 10.5348 39.9166 10.9432C38.2708 9.18734 35.9583 8.1665 33.3333 8.1665C28.4375 8.1665 24.4375 12.0865 24.4375 16.9253C24.4375 17.6194 24.5208 18.2932 24.6666 18.9261C17.25 18.5586 10.6458 15.0673 6.24998 9.77942C5.47915 11.0657 5.04165 12.5765 5.04165 14.169C5.04165 17.2111 6.60415 19.9061 9.02081 21.4373C7.54165 21.4373 6.16665 21.029 4.95831 20.4165V20.4778C4.95831 24.7244 8.04165 28.2769 12.125 29.0732C10.814 29.4248 9.43768 29.4737 8.10415 29.2161C8.66999 30.9566 9.77818 32.4795 11.2729 33.5708C12.7677 34.6621 14.5738 35.267 16.4375 35.3003C13.2784 37.7511 9.36247 39.0759 5.33331 39.0569C4.62498 39.0569 3.91665 39.0161 3.20831 38.9344C7.16665 41.4253 11.875 42.8748 16.9166 42.8748C33.3333 42.8748 42.3541 29.5223 42.3541 17.9461C42.3541 17.5582 42.3541 17.1907 42.3333 16.8028C44.0833 15.5778 45.5833 14.0261 46.7916 12.2498Z" fill="#68EAFF"/>
</svg>
